solid OpenSCAD_Model
  facet normal 0 0 -1
    outer loop
      vertex 14.1355 -29.0674 -3.5
      vertex 103 -4.28612e-016 -3.5
      vertex 103 -131.18 -3.5
    endloop
  endfacet
  facet normal 0 0 -1
    outer loop
      vertex 103 -4.28612e-016 -3.5
      vertex 14.7815 -27.0791 -3.5
      vertex 15 -25 -3.5
    endloop
  endfacet
  facet normal 0 0 -1
    outer loop
      vertex 103 -4.28612e-016 -3.5
      vertex 14.1355 -29.0674 -3.5
      vertex 14.7815 -27.0791 -3.5
    endloop
  endfacet
  facet normal 0 0 -1
    outer loop
      vertex 103 -131.18 -3.5
      vertex 13.0902 -30.8779 -3.5
      vertex 14.1355 -29.0674 -3.5
    endloop
  endfacet
  facet normal 0 0 -1
    outer loop
      vertex 103 -131.18 -3.5
      vertex 11.6913 -32.4314 -3.5
      vertex 13.0902 -30.8779 -3.5
    endloop
  endfacet
  facet normal 0 0 -1
    outer loop
      vertex 0 -131.18 -3.5
      vertex 11.6913 -32.4314 -3.5
      vertex 103 -131.18 -3.5
    endloop
  endfacet
  facet normal 0 0 -1
    outer loop
      vertex 11.6913 -32.4314 -3.5
      vertex 0 -131.18 -3.5
      vertex 10 -33.6603 -3.5
    endloop
  endfacet
  facet normal 0 0 -1
    outer loop
      vertex 10 -33.6603 -3.5
      vertex 0 -131.18 -3.5
      vertex 8.09017 -34.5106 -3.5
    endloop
  endfacet
  facet normal 0 0 -1
    outer loop
      vertex 8.09017 -34.5106 -3.5
      vertex 0 -131.18 -3.5
      vertex 6.04528 -34.9452 -3.5
    endloop
  endfacet
  facet normal 0 0 -1
    outer loop
      vertex 6.04528 -34.9452 -3.5
      vertex 0 -131.18 -3.5
      vertex 5 -35 -3.5
    endloop
  endfacet
  facet normal -0 0 -1
    outer loop
      vertex 5 -35 -3.5
      vertex 0 -131.18 -3.5
      vertex 0 -35 -3.5
    endloop
  endfacet
  facet normal 0 0 -1
    outer loop
      vertex 14.7815 -22.9209 -3.5
      vertex 103 -4.28612e-016 -3.5
      vertex 15 -25 -3.5
    endloop
  endfacet
  facet normal 0 0 -1
    outer loop
      vertex 14.1355 -20.9326 -3.5
      vertex 103 -4.28612e-016 -3.5
      vertex 14.7815 -22.9209 -3.5
    endloop
  endfacet
  facet normal 0 0 -1
    outer loop
      vertex 13.0902 -19.1221 -3.5
      vertex 103 -4.28612e-016 -3.5
      vertex 14.1355 -20.9326 -3.5
    endloop
  endfacet
  facet normal 0 0 -1
    outer loop
      vertex 11.6913 -17.5686 -3.5
      vertex 103 -4.28612e-016 -3.5
      vertex 13.0902 -19.1221 -3.5
    endloop
  endfacet
  facet normal 0 0 -1
    outer loop
      vertex 0 -4.28612e-016 -3.5
      vertex 11.6913 -17.5686 -3.5
      vertex 10 -16.3397 -3.5
    endloop
  endfacet
  facet normal 0 0 -1
    outer loop
      vertex 0 -4.28612e-016 -3.5
      vertex 10 -16.3397 -3.5
      vertex 8.09017 -15.4894 -3.5
    endloop
  endfacet
  facet normal 0 0 -1
    outer loop
      vertex 0 -4.28612e-016 -3.5
      vertex 8.09017 -15.4894 -3.5
      vertex 6.04528 -15.0548 -3.5
    endloop
  endfacet
  facet normal 0 0 -1
    outer loop
      vertex 5 -15 -3.5
      vertex 6.04528 -15.0548 -3.5
      vertex 5 -15.0548 -3.5
    endloop
  endfacet
  facet normal 0 0 -1
    outer loop
      vertex 0 -4.28612e-016 -3.5
      vertex 6.04528 -15.0548 -3.5
      vertex 5 -15 -3.5
    endloop
  endfacet
  facet normal 0 0 -1
    outer loop
      vertex 0 -4.28612e-016 -3.5
      vertex 5 -15 -3.5
      vertex 0 -15 -3.5
    endloop
  endfacet
  facet normal 0 0 -1
    outer loop
      vertex 11.6913 -17.5686 -3.5
      vertex 0 -4.28612e-016 -3.5
      vertex 103 -4.28612e-016 -3.5
    endloop
  endfacet
  facet normal -0 0 -1
    outer loop
      vertex 6.04528 -34.9452 -3.5
      vertex 5 -35 -3.5
      vertex 5 -34.9452 -3.5
    endloop
  endfacet
  facet normal -1 0 0
    outer loop
      vertex 5 -15.0548 -3.5
      vertex 5 -15 1.83691e-015
      vertex 5 -15 -3.5
    endloop
  endfacet
  facet normal -1 -0 0
    outer loop
      vertex 5 -15 1.83691e-015
      vertex 5 -15.0548 -3.5
      vertex 5 -15.0548 1.84362e-015
    endloop
  endfacet
  facet normal -1 0 0
    outer loop
      vertex 5 -35 -3.5
      vertex 5 -34.9452 4.27941e-015
      vertex 5 -34.9452 -3.5
    endloop
  endfacet
  facet normal -1 -0 0
    outer loop
      vertex 5 -34.9452 4.27941e-015
      vertex 5 -35 -3.5
      vertex 5 -35 4.28612e-015
    endloop
  endfacet
  facet normal 0 -1 0
    outer loop
      vertex 0 -15 -3.5
      vertex 5 -15 1.83691e-015
      vertex 0 -15 1.83691e-015
    endloop
  endfacet
  facet normal 0 -1 -0
    outer loop
      vertex 5 -15 1.83691e-015
      vertex 0 -15 -3.5
      vertex 5 -15 -3.5
    endloop
  endfacet
  facet normal 0 1 -0
    outer loop
      vertex 5 -35 -3.5
      vertex 0 -35 4.28612e-015
      vertex 5 -35 4.28612e-015
    endloop
  endfacet
  facet normal 0 1 0
    outer loop
      vertex 0 -35 4.28612e-015
      vertex 5 -35 -3.5
      vertex 0 -35 -3.5
    endloop
  endfacet
  facet normal -0.994522 0.104529 0
    outer loop
      vertex 14.7815 -27.0791 -3.5
      vertex 15 -25 3.06152e-015
      vertex 15 -25 -3.5
    endloop
  endfacet
  facet normal -0.994522 0.104529 0
    outer loop
      vertex 15 -25 3.06152e-015
      vertex 14.7815 -27.0791 -3.5
      vertex 14.7815 -27.0791 3.31613e-015
    endloop
  endfacet
  facet normal 0 1 -0
    outer loop
      vertex 6.04528 -34.9452 -3.5
      vertex 5 -34.9452 4.27941e-015
      vertex 6.04528 -34.9452 4.27941e-015
    endloop
  endfacet
  facet normal 0 1 0
    outer loop
      vertex 5 -34.9452 4.27941e-015
      vertex 6.04528 -34.9452 -3.5
      vertex 5 -34.9452 -3.5
    endloop
  endfacet
  facet normal 0 -1 0
    outer loop
      vertex 5 -15.0548 -3.5
      vertex 6.04528 -15.0548 1.84362e-015
      vertex 5 -15.0548 1.84362e-015
    endloop
  endfacet
  facet normal 0 -1 -0
    outer loop
      vertex 6.04528 -15.0548 1.84362e-015
      vertex 5 -15.0548 -3.5
      vertex 6.04528 -15.0548 -3.5
    endloop
  endfacet
  facet normal -0.587785 0.809017 0
    outer loop
      vertex 11.6913 -32.4314 -3.5
      vertex 10 -33.6603 4.12206e-015
      vertex 11.6913 -32.4314 3.97158e-015
    endloop
  endfacet
  facet normal -0.587785 0.809017 0
    outer loop
      vertex 10 -33.6603 4.12206e-015
      vertex 11.6913 -32.4314 -3.5
      vertex 10 -33.6603 -3.5
    endloop
  endfacet
  facet normal -0.406737 0.913545 0
    outer loop
      vertex 10 -33.6603 -3.5
      vertex 8.09017 -34.5106 4.22619e-015
      vertex 10 -33.6603 4.12206e-015
    endloop
  endfacet
  facet normal -0.406737 0.913545 0
    outer loop
      vertex 8.09017 -34.5106 4.22619e-015
      vertex 10 -33.6603 -3.5
      vertex 8.09017 -34.5106 -3.5
    endloop
  endfacet
  facet normal -0.866026 0.5 0
    outer loop
      vertex 13.0902 -30.8779 -3.5
      vertex 14.1355 -29.0674 3.55961e-015
      vertex 14.1355 -29.0674 -3.5
    endloop
  endfacet
  facet normal -0.866026 0.5 0
    outer loop
      vertex 14.1355 -29.0674 3.55961e-015
      vertex 13.0902 -30.8779 -3.5
      vertex 13.0902 -30.8779 3.78132e-015
    endloop
  endfacet
  facet normal -0.951057 0.309017 0
    outer loop
      vertex 14.1355 -29.0674 -3.5
      vertex 14.7815 -27.0791 3.31613e-015
      vertex 14.7815 -27.0791 -3.5
    endloop
  endfacet
  facet normal -0.951057 0.309017 0
    outer loop
      vertex 14.7815 -27.0791 3.31613e-015
      vertex 14.1355 -29.0674 -3.5
      vertex 14.1355 -29.0674 3.55961e-015
    endloop
  endfacet
  facet normal -0.743145 0.669131 0
    outer loop
      vertex 11.6913 -32.4314 -3.5
      vertex 13.0902 -30.8779 3.78132e-015
      vertex 13.0902 -30.8779 -3.5
    endloop
  endfacet
  facet normal -0.743145 0.669131 0
    outer loop
      vertex 13.0902 -30.8779 3.78132e-015
      vertex 11.6913 -32.4314 -3.5
      vertex 11.6913 -32.4314 3.97158e-015
    endloop
  endfacet
  facet normal -0.20791 0.978148 0
    outer loop
      vertex 8.09017 -34.5106 -3.5
      vertex 6.04528 -34.9452 4.27941e-015
      vertex 8.09017 -34.5106 4.22619e-015
    endloop
  endfacet
  facet normal -0.20791 0.978148 0
    outer loop
      vertex 6.04528 -34.9452 4.27941e-015
      vertex 8.09017 -34.5106 -3.5
      vertex 6.04528 -34.9452 -3.5
    endloop
  endfacet
  facet normal -0.994522 -0.104529 0
    outer loop
      vertex 15 -25 -3.5
      vertex 14.7815 -22.9209 2.80691e-015
      vertex 14.7815 -22.9209 -3.5
    endloop
  endfacet
  facet normal -0.994522 -0.104529 0
    outer loop
      vertex 14.7815 -22.9209 2.80691e-015
      vertex 15 -25 -3.5
      vertex 15 -25 3.06152e-015
    endloop
  endfacet
  facet normal -0 1.22461e-016 1
    outer loop
      vertex 20.7 -46.3 5.66993e-015
      vertex 102.3 -49.2 6.02506e-015
      vertex 102.3 -46.3 5.66993e-015
    endloop
  endfacet
  facet normal 1.36593e-022 1.22461e-016 1
    outer loop
      vertex 14.7815 -27.0791 3.31613e-015
      vertex 20.7 -46.3 5.66993e-015
      vertex 15 -25 3.06152e-015
    endloop
  endfacet
  facet normal -2.12055e-023 1.22461e-016 1
    outer loop
      vertex 14.1355 -29.0674 3.55961e-015
      vertex 20.7 -46.3 5.66993e-015
      vertex 14.7815 -27.0791 3.31613e-015
    endloop
  endfacet
  facet normal -2.5364e-023 1.22461e-016 1
    outer loop
      vertex 13.0902 -30.8779 3.78132e-015
      vertex 20.7 -46.3 5.66993e-015
      vertex 14.1355 -29.0674 3.55961e-015
    endloop
  endfacet
  facet normal -9.82686e-023 1.22461e-016 1
    outer loop
      vertex 11.6913 -32.4314 3.97158e-015
      vertex 20.7 -46.3 5.66993e-015
      vertex 13.0902 -30.8779 3.78132e-015
    endloop
  endfacet
  facet normal 6.81327e-023 1.22461e-016 1
    outer loop
      vertex 10 -33.6603 4.12206e-015
      vertex 20.7 -46.3 5.66993e-015
      vertex 11.6913 -32.4314 3.97158e-015
    endloop
  endfacet
  facet normal -3.1169e-023 1.22461e-016 1
    outer loop
      vertex 8.09017 -34.5106 4.22619e-015
      vertex 20.7 -46.3 5.66993e-015
      vertex 10 -33.6603 4.12206e-015
    endloop
  endfacet
  facet normal 2.24575e-022 1.22461e-016 1
    outer loop
      vertex 0.7 -49.2 6.02506e-015
      vertex 8.09017 -34.5106 4.22619e-015
      vertex 6.04528 -34.9452 4.27941e-015
    endloop
  endfacet
  facet normal 0 1.22456e-016 1
    outer loop
      vertex 5 -35 4.28612e-015
      vertex 6.04528 -34.9452 4.27941e-015
      vertex 5 -34.9452 4.27941e-015
    endloop
  endfacet
  facet normal -2.36025e-022 1.22461e-016 1
    outer loop
      vertex 0.7 -49.2 6.02506e-015
      vertex 6.04528 -34.9452 4.27941e-015
      vertex 5 -35 4.28612e-015
    endloop
  endfacet
  facet normal 0 1.22461e-016 1
    outer loop
      vertex 20.7 -46.3 5.66993e-015
      vertex 0.7 -49.2 6.02506e-015
      vertex 102.3 -49.2 6.02506e-015
    endloop
  endfacet
  facet normal -4.45065e-024 1.22461e-016 1
    outer loop
      vertex 8.09017 -34.5106 4.22619e-015
      vertex 0.7 -49.2 6.02506e-015
      vertex 20.7 -46.3 5.66993e-015
    endloop
  endfacet
  facet normal 6.21824e-022 1.22461e-016 1
    outer loop
      vertex 0 -131.18 1.60644e-014
      vertex 0.7 -49.2 6.02506e-015
      vertex 0 -35 4.28612e-015
    endloop
  endfacet
  facet normal -0 1.22461e-016 1
    outer loop
      vertex 0 -35 4.28612e-015
      vertex 0.7 -49.2 6.02506e-015
      vertex 5 -35 4.28612e-015
    endloop
  endfacet
  facet normal 2.84879e-024 1.22461e-016 1
    outer loop
      vertex 102.3 -46.3 5.66993e-015
      vertex 103 0 0
      vertex 102.3 -0.7 8.57224e-017
    endloop
  endfacet
  facet normal 0 1.22461e-016 1
    outer loop
      vertex 103 0 0
      vertex 20.7 -0.7 8.57224e-017
      vertex 102.3 -0.7 8.57224e-017
    endloop
  endfacet
  facet normal 1.50601e-023 1.22461e-016 1
    outer loop
      vertex 20.7 -0.7 8.57224e-017
      vertex 15 -25 3.06152e-015
      vertex 20.7 -46.3 5.66993e-015
    endloop
  endfacet
  facet normal -1.27613e-022 1.22461e-016 1
    outer loop
      vertex 20.7 -0.7 8.57224e-017
      vertex 14.7815 -22.9209 2.80691e-015
      vertex 15 -25 3.06152e-015
    endloop
  endfacet
  facet normal 3.79414e-023 1.22461e-016 1
    outer loop
      vertex 20.7 -0.7 8.57224e-017
      vertex 14.1355 -20.9326 2.56342e-015
      vertex 14.7815 -22.9209 2.80691e-015
    endloop
  endfacet
  facet normal 3.76757e-023 1.22461e-016 1
    outer loop
      vertex 20.7 -0.7 8.57224e-017
      vertex 13.0902 -19.1221 2.34171e-015
      vertex 14.1355 -20.9326 2.56342e-015
    endloop
  endfacet
  facet normal -2.45021e-024 1.22461e-016 1
    outer loop
      vertex 20.7 -0.7 8.57224e-017
      vertex 11.6913 -17.5686 2.15146e-015
      vertex 13.0902 -19.1221 2.34171e-015
    endloop
  endfacet
  facet normal 1.50804e-023 1.22461e-016 1
    outer loop
      vertex 20.7 -0.7 8.57224e-017
      vertex 10 -16.3397 2.00098e-015
      vertex 11.6913 -17.5686 2.15146e-015
    endloop
  endfacet
  facet normal -4.8613e-023 1.22461e-016 1
    outer loop
      vertex 20.7 -0.7 8.57224e-017
      vertex 8.09017 -15.4894 1.89685e-015
      vertex 10 -16.3397 2.00098e-015
    endloop
  endfacet
  facet normal -1.33149e-025 1.22461e-016 1
    outer loop
      vertex 0 0 0
      vertex 8.09017 -15.4894 1.89685e-015
      vertex 20.7 -0.7 8.57224e-017
    endloop
  endfacet
  facet normal 8.41488e-023 1.22461e-016 1
    outer loop
      vertex 8.09017 -15.4894 1.89685e-015
      vertex 0 0 0
      vertex 6.04528 -15.0548 1.84362e-015
    endloop
  endfacet
  facet normal -0 1.22461e-016 1
    outer loop
      vertex 0 0 0
      vertex 20.7 -0.7 8.57224e-017
      vertex 103 0 0
    endloop
  endfacet
  facet normal -8.25047e-023 1.22461e-016 1
    outer loop
      vertex 6.04528 -15.0548 1.84362e-015
      vertex 0 0 0
      vertex 5 -15 1.83691e-015
    endloop
  endfacet
  facet normal 0 1.22461e-016 1
    outer loop
      vertex 5 -15 1.83691e-015
      vertex 0 0 0
      vertex 0 -15 1.83691e-015
    endloop
  endfacet
  facet normal -8.18458e-022 1.22461e-016 1
    outer loop
      vertex 103 0 0
      vertex 102.3 -46.3 5.66993e-015
      vertex 103 -131.18 1.60644e-014
    endloop
  endfacet
  facet normal -6.16957e-021 1.22461e-016 1
    outer loop
      vertex 102.3 -49.2 6.02506e-015
      vertex 103 -131.18 1.60644e-014
      vertex 102.3 -46.3 5.66993e-015
    endloop
  endfacet
  facet normal -1.49726e-021 1.22461e-016 1
    outer loop
      vertex 102.3 -130.48 1.59787e-014
      vertex 103 -131.18 1.60644e-014
      vertex 102.3 -49.2 6.02506e-015
    endloop
  endfacet
  facet normal -0 1.22462e-016 1
    outer loop
      vertex 0.7 -130.48 1.59787e-014
      vertex 103 -131.18 1.60644e-014
      vertex 102.3 -130.48 1.59787e-014
    endloop
  endfacet
  facet normal 0 1.22462e-016 1
    outer loop
      vertex 0.7 -130.48 1.59787e-014
      vertex 0 -131.18 1.60644e-014
      vertex 103 -131.18 1.60644e-014
    endloop
  endfacet
  facet normal 1.49726e-021 1.22461e-016 1
    outer loop
      vertex 0.7 -49.2 6.02506e-015
      vertex 0 -131.18 1.60644e-014
      vertex 0.7 -130.48 1.59787e-014
    endloop
  endfacet
  facet normal 0 1.22462e-016 1
    outer loop
      vertex 6.04528 -15.0548 1.84362e-015
      vertex 5 -15 1.83691e-015
      vertex 5 -15.0548 1.84362e-015
    endloop
  endfacet
  facet normal -0.207911 -0.978148 0
    outer loop
      vertex 6.04528 -15.0548 -3.5
      vertex 8.09017 -15.4894 1.89685e-015
      vertex 6.04528 -15.0548 1.84362e-015
    endloop
  endfacet
  facet normal -0.207911 -0.978148 -0
    outer loop
      vertex 8.09017 -15.4894 1.89685e-015
      vertex 6.04528 -15.0548 -3.5
      vertex 8.09017 -15.4894 -3.5
    endloop
  endfacet
  facet normal -0.743144 -0.669131 0
    outer loop
      vertex 13.0902 -19.1221 -3.5
      vertex 11.6913 -17.5686 2.15146e-015
      vertex 11.6913 -17.5686 -3.5
    endloop
  endfacet
  facet normal -0.743144 -0.669131 0
    outer loop
      vertex 11.6913 -17.5686 2.15146e-015
      vertex 13.0902 -19.1221 -3.5
      vertex 13.0902 -19.1221 2.34171e-015
    endloop
  endfacet
  facet normal -0.951057 -0.309017 0
    outer loop
      vertex 14.7815 -22.9209 -3.5
      vertex 14.1355 -20.9326 2.56342e-015
      vertex 14.1355 -20.9326 -3.5
    endloop
  endfacet
  facet normal -0.951057 -0.309017 0
    outer loop
      vertex 14.1355 -20.9326 2.56342e-015
      vertex 14.7815 -22.9209 -3.5
      vertex 14.7815 -22.9209 2.80691e-015
    endloop
  endfacet
  facet normal -0.866026 -0.5 0
    outer loop
      vertex 14.1355 -20.9326 -3.5
      vertex 13.0902 -19.1221 2.34171e-015
      vertex 13.0902 -19.1221 -3.5
    endloop
  endfacet
  facet normal -0.866026 -0.5 0
    outer loop
      vertex 13.0902 -19.1221 2.34171e-015
      vertex 14.1355 -20.9326 -3.5
      vertex 14.1355 -20.9326 2.56342e-015
    endloop
  endfacet
  facet normal -0.587785 -0.809017 0
    outer loop
      vertex 10 -16.3397 -3.5
      vertex 11.6913 -17.5686 2.15146e-015
      vertex 10 -16.3397 2.00098e-015
    endloop
  endfacet
  facet normal -0.587785 -0.809017 -0
    outer loop
      vertex 11.6913 -17.5686 2.15146e-015
      vertex 10 -16.3397 -3.5
      vertex 11.6913 -17.5686 -3.5
    endloop
  endfacet
  facet normal -0.406737 -0.913545 0
    outer loop
      vertex 8.09017 -15.4894 -3.5
      vertex 10 -16.3397 2.00098e-015
      vertex 8.09017 -15.4894 1.89685e-015
    endloop
  endfacet
  facet normal -0.406737 -0.913545 -0
    outer loop
      vertex 10 -16.3397 2.00098e-015
      vertex 8.09017 -15.4894 -3.5
      vertex 10 -16.3397 -3.5
    endloop
  endfacet
  facet normal 1 0 0
    outer loop
      vertex 20.7 -46.3 5.66993e-015
      vertex 20.7 -0.7 -2
      vertex 20.7 -0.7 8.57224e-017
    endloop
  endfacet
  facet normal 1 0 0
    outer loop
      vertex 20.7 -0.7 -2
      vertex 20.7 -46.3 5.66993e-015
      vertex 20.7 -46.3 -2
    endloop
  endfacet
  facet normal -0 0 1
    outer loop
      vertex 20.7 -0.7 -2
      vertex 102.3 -46.3 -2
      vertex 102.3 -0.7 -2
    endloop
  endfacet
  facet normal 0 0 1
    outer loop
      vertex 102.3 -46.3 -2
      vertex 20.7 -0.7 -2
      vertex 20.7 -46.3 -2
    endloop
  endfacet
  facet normal -1 0 0
    outer loop
      vertex 102.3 -46.3 -2
      vertex 102.3 -0.7 8.57224e-017
      vertex 102.3 -0.7 -2
    endloop
  endfacet
  facet normal -1 -0 0
    outer loop
      vertex 102.3 -0.7 8.57224e-017
      vertex 102.3 -46.3 -2
      vertex 102.3 -46.3 5.66993e-015
    endloop
  endfacet
  facet normal 0 1 -0
    outer loop
      vertex 102.3 -46.3 -2
      vertex 20.7 -46.3 5.66993e-015
      vertex 102.3 -46.3 5.66993e-015
    endloop
  endfacet
  facet normal 0 1 0
    outer loop
      vertex 20.7 -46.3 5.66993e-015
      vertex 102.3 -46.3 -2
      vertex 20.7 -46.3 -2
    endloop
  endfacet
  facet normal 0 -1 0
    outer loop
      vertex 20.7 -0.7 -2
      vertex 102.3 -0.7 8.57224e-017
      vertex 20.7 -0.7 8.57224e-017
    endloop
  endfacet
  facet normal 0 -1 -0
    outer loop
      vertex 102.3 -0.7 8.57224e-017
      vertex 20.7 -0.7 -2
      vertex 102.3 -0.7 -2
    endloop
  endfacet
  facet normal 1 0 0
    outer loop
      vertex 0.7 -130.48 1.59787e-014
      vertex 0.7 -49.2 -2
      vertex 0.7 -49.2 6.02506e-015
    endloop
  endfacet
  facet normal 1 0 0
    outer loop
      vertex 0.7 -49.2 -2
      vertex 0.7 -130.48 1.59787e-014
      vertex 0.7 -130.48 -2
    endloop
  endfacet
  facet normal -0 0 1
    outer loop
      vertex 0.7 -49.2 -2
      vertex 102.3 -130.48 -2
      vertex 102.3 -49.2 -2
    endloop
  endfacet
  facet normal 0 0 1
    outer loop
      vertex 102.3 -130.48 -2
      vertex 0.7 -49.2 -2
      vertex 0.7 -130.48 -2
    endloop
  endfacet
  facet normal -1 0 0
    outer loop
      vertex 102.3 -130.48 -2
      vertex 102.3 -49.2 6.02506e-015
      vertex 102.3 -49.2 -2
    endloop
  endfacet
  facet normal -1 -0 0
    outer loop
      vertex 102.3 -49.2 6.02506e-015
      vertex 102.3 -130.48 -2
      vertex 102.3 -130.48 1.59787e-014
    endloop
  endfacet
  facet normal 0 1 -0
    outer loop
      vertex 102.3 -130.48 -2
      vertex 0.7 -130.48 1.59787e-014
      vertex 102.3 -130.48 1.59787e-014
    endloop
  endfacet
  facet normal 0 1 0
    outer loop
      vertex 0.7 -130.48 1.59787e-014
      vertex 102.3 -130.48 -2
      vertex 0.7 -130.48 -2
    endloop
  endfacet
  facet normal 0 -1 0
    outer loop
      vertex 0.7 -49.2 -2
      vertex 102.3 -49.2 6.02506e-015
      vertex 0.7 -49.2 6.02506e-015
    endloop
  endfacet
  facet normal 0 -1 -0
    outer loop
      vertex 102.3 -49.2 6.02506e-015
      vertex 0.7 -49.2 -2
      vertex 102.3 -49.2 -2
    endloop
  endfacet
  facet normal -1 0 0
    outer loop
      vertex 0 -15 -3.5
      vertex 0 0 0
      vertex 0 -4.28612e-016 -3.5
    endloop
  endfacet
  facet normal -1 -0 0
    outer loop
      vertex 0 0 0
      vertex 0 -15 -3.5
      vertex 0 -15 1.83691e-015
    endloop
  endfacet
  facet normal -1 0 0
    outer loop
      vertex 0 -35 -3.5
      vertex 0 -70 -3.03062
      vertex 0 -35 4.28612e-015
    endloop
  endfacet
  facet normal -1 0 0
    outer loop
      vertex 0 -35 -3.5
      vertex 0 -80 -3.03062
      vertex 0 -70 -3.03062
    endloop
  endfacet
  facet normal -1 0 0
    outer loop
      vertex 0 -80 -3.03062
      vertex 0 -102.68 -3.03062
      vertex 0 -80 -0.469382
    endloop
  endfacet
  facet normal -1 0 0
    outer loop
      vertex 0 -35 -3.5
      vertex 0 -102.68 -3.03062
      vertex 0 -80 -3.03062
    endloop
  endfacet
  facet normal -1 0 0
    outer loop
      vertex 0 -131.18 -3.5
      vertex 0 -102.68 -3.03062
      vertex 0 -35 -3.5
    endloop
  endfacet
  facet normal -1 -0 0
    outer loop
      vertex 0 -112.68 -3.03062
      vertex 0 -131.18 -3.5
      vertex 0 -112.68 -0.469382
    endloop
  endfacet
  facet normal -1 -0 0
    outer loop
      vertex 0 -102.68 -3.03062
      vertex 0 -131.18 -3.5
      vertex 0 -112.68 -3.03062
    endloop
  endfacet
  facet normal -1 0 0
    outer loop
      vertex 0 -70 -0.469382
      vertex 0 -35 4.28612e-015
      vertex 0 -70 -3.03062
    endloop
  endfacet
  facet normal -1 0 0
    outer loop
      vertex 0 -80 -0.469382
      vertex 0 -35 4.28612e-015
      vertex 0 -70 -0.469382
    endloop
  endfacet
  facet normal -1 0 0
    outer loop
      vertex 0 -102.68 -0.469382
      vertex 0 -80 -0.469382
      vertex 0 -102.68 -3.03062
    endloop
  endfacet
  facet normal -1 0 0
    outer loop
      vertex 0 -102.68 -0.469382
      vertex 0 -35 4.28612e-015
      vertex 0 -80 -0.469382
    endloop
  endfacet
  facet normal -1 0 0
    outer loop
      vertex 0 -131.18 1.60644e-014
      vertex 0 -102.68 -0.469382
      vertex 0 -112.68 -0.469382
    endloop
  endfacet
  facet normal -1 0 0
    outer loop
      vertex 0 -102.68 -0.469382
      vertex 0 -131.18 1.60644e-014
      vertex 0 -35 4.28612e-015
    endloop
  endfacet
  facet normal -1 0 0
    outer loop
      vertex 0 -131.18 1.60644e-014
      vertex 0 -112.68 -0.469382
      vertex 0 -131.18 -3.5
    endloop
  endfacet
  facet normal 1 0 0
    outer loop
      vertex 103 0 0
      vertex 103 -20 -0.469382
      vertex 103 -4.28612e-016 -3.5
    endloop
  endfacet
  facet normal 1 0 0
    outer loop
      vertex 103 0 0
      vertex 103 -30 -0.469382
      vertex 103 -20 -0.469382
    endloop
  endfacet
  facet normal 1 0 0
    outer loop
      vertex 103 -30 -0.469382
      vertex 103 -70 -0.469382
      vertex 103 -30 -3.03062
    endloop
  endfacet
  facet normal 1 0 0
    outer loop
      vertex 103 0 0
      vertex 103 -70 -0.469382
      vertex 103 -30 -0.469382
    endloop
  endfacet
  facet normal 1 0 0
    outer loop
      vertex 103 0 0
      vertex 103 -80 -0.469382
      vertex 103 -70 -0.469382
    endloop
  endfacet
  facet normal 1 0 0
    outer loop
      vertex 103 -80 -0.469382
      vertex 103 -102.68 -0.469382
      vertex 103 -80 -3.03062
    endloop
  endfacet
  facet normal 1 0 0
    outer loop
      vertex 103 -131.18 1.60644e-014
      vertex 103 -80 -0.469382
      vertex 103 0 0
    endloop
  endfacet
  facet normal 1 0 0
    outer loop
      vertex 103 -80 -0.469382
      vertex 103 -131.18 1.60644e-014
      vertex 103 -102.68 -0.469382
    endloop
  endfacet
  facet normal 1 0 0
    outer loop
      vertex 103 -112.68 -0.469382
      vertex 103 -131.18 1.60644e-014
      vertex 103 -112.68 -3.03062
    endloop
  endfacet
  facet normal 1 0 0
    outer loop
      vertex 103 -102.68 -0.469382
      vertex 103 -131.18 1.60644e-014
      vertex 103 -112.68 -0.469382
    endloop
  endfacet
  facet normal 1 -0 0
    outer loop
      vertex 103 -20 -3.03062
      vertex 103 -4.28612e-016 -3.5
      vertex 103 -20 -0.469382
    endloop
  endfacet
  facet normal 1 -0 0
    outer loop
      vertex 103 -30 -3.03062
      vertex 103 -4.28612e-016 -3.5
      vertex 103 -20 -3.03062
    endloop
  endfacet
  facet normal 1 0 0
    outer loop
      vertex 103 -70 -3.03062
      vertex 103 -30 -3.03062
      vertex 103 -70 -0.469382
    endloop
  endfacet
  facet normal 1 -0 0
    outer loop
      vertex 103 -70 -3.03062
      vertex 103 -4.28612e-016 -3.5
      vertex 103 -30 -3.03062
    endloop
  endfacet
  facet normal 1 -0 0
    outer loop
      vertex 103 -80 -3.03062
      vertex 103 -4.28612e-016 -3.5
      vertex 103 -70 -3.03062
    endloop
  endfacet
  facet normal 1 0 0
    outer loop
      vertex 103 -102.68 -3.03062
      vertex 103 -80 -3.03062
      vertex 103 -102.68 -0.469382
    endloop
  endfacet
  facet normal 1 0 0
    outer loop
      vertex 103 -131.18 -3.5
      vertex 103 -80 -3.03062
      vertex 103 -102.68 -3.03062
    endloop
  endfacet
  facet normal 1 0 0
    outer loop
      vertex 103 -131.18 -3.5
      vertex 103 -102.68 -3.03062
      vertex 103 -112.68 -3.03062
    endloop
  endfacet
  facet normal 1 0 0
    outer loop
      vertex 103 -80 -3.03062
      vertex 103 -131.18 -3.5
      vertex 103 -4.28612e-016 -3.5
    endloop
  endfacet
  facet normal 1 0 0
    outer loop
      vertex 103 -131.18 -3.5
      vertex 103 -112.68 -3.03062
      vertex 103 -131.18 1.60644e-014
    endloop
  endfacet
  facet normal 0 1 -1.22461e-016
    outer loop
      vertex 74.5 -3.71131e-016 -3.03062
      vertex 31.5 -5.74808e-017 -0.469382
      vertex 74.5 -5.74808e-017 -0.469382
    endloop
  endfacet
  facet normal 0 1 -1.22461e-016
    outer loop
      vertex 31.5 -5.74808e-017 -0.469382
      vertex 74.5 -3.71131e-016 -3.03062
      vertex 31.5 -3.71131e-016 -3.03062
    endloop
  endfacet
  facet normal 0 1 -1.22461e-016
    outer loop
      vertex 74.5 -5.74808e-017 -0.469382
      vertex 103 0 0
      vertex 84.5 -5.74808e-017 -0.469382
    endloop
  endfacet
  facet normal -3.16786e-026 1 -1.22461e-016
    outer loop
      vertex 103 0 0
      vertex 84.5 -3.71131e-016 -3.03062
      vertex 84.5 -5.74808e-017 -0.469382
    endloop
  endfacet
  facet normal 0 1 -1.22461e-016
    outer loop
      vertex 103 -4.28612e-016 -3.5
      vertex 74.5 -3.71131e-016 -3.03062
      vertex 84.5 -3.71131e-016 -3.03062
    endloop
  endfacet
  facet normal 0 1 -1.22461e-016
    outer loop
      vertex 74.5 -3.71131e-016 -3.03062
      vertex 103 -4.28612e-016 -3.5
      vertex 31.5 -3.71131e-016 -3.03062
    endloop
  endfacet
  facet normal 0 1 -1.22461e-016
    outer loop
      vertex 0 -4.28612e-016 -3.5
      vertex 31.5 -3.71131e-016 -3.03062
      vertex 103 -4.28612e-016 -3.5
    endloop
  endfacet
  facet normal -1.79548e-025 1 -1.22461e-016
    outer loop
      vertex 103 -4.28612e-016 -3.5
      vertex 84.5 -3.71131e-016 -3.03062
      vertex 103 0 0
    endloop
  endfacet
  facet normal 0 1 -1.22461e-016
    outer loop
      vertex 103 0 0
      vertex 74.5 -5.74808e-017 -0.469382
      vertex 0 0 0
    endloop
  endfacet
  facet normal 0 1 -1.22461e-016
    outer loop
      vertex 31.5 -5.74808e-017 -0.469382
      vertex 0 0 0
      vertex 74.5 -5.74808e-017 -0.469382
    endloop
  endfacet
  facet normal 0 1 -1.22461e-016
    outer loop
      vertex 21.5 -5.74808e-017 -0.469382
      vertex 0 0 0
      vertex 31.5 -5.74808e-017 -0.469382
    endloop
  endfacet
  facet normal 2.72583e-026 1 -1.22461e-016
    outer loop
      vertex 21.5 -3.71131e-016 -3.03062
      vertex 0 0 0
      vertex 21.5 -5.74808e-017 -0.469382
    endloop
  endfacet
  facet normal 1.54495e-025 1 -1.22461e-016
    outer loop
      vertex 21.5 -3.71131e-016 -3.03062
      vertex 0 -4.28612e-016 -3.5
      vertex 0 0 0
    endloop
  endfacet
  facet normal 0 1 -1.22461e-016
    outer loop
      vertex 31.5 -3.71131e-016 -3.03062
      vertex 0 -4.28612e-016 -3.5
      vertex 21.5 -3.71131e-016 -3.03062
    endloop
  endfacet
  facet normal 0 -1 0
    outer loop
      vertex 31.5 -131.18 -3.03062
      vertex 74.5 -131.18 -0.469382
      vertex 31.5 -131.18 -0.469382
    endloop
  endfacet
  facet normal 0 -1 -0
    outer loop
      vertex 74.5 -131.18 -0.469382
      vertex 31.5 -131.18 -3.03062
      vertex 74.5 -131.18 -3.03062
    endloop
  endfacet
  facet normal 0 -1 0
    outer loop
      vertex 31.5 -131.18 -0.469382
      vertex 0 -131.18 1.60644e-014
      vertex 21.5 -131.18 -0.469382
    endloop
  endfacet
  facet normal 0 -1 0
    outer loop
      vertex 0 -131.18 1.60644e-014
      vertex 21.5 -131.18 -3.03062
      vertex 21.5 -131.18 -0.469382
    endloop
  endfacet
  facet normal 0 -1 0
    outer loop
      vertex 0 -131.18 -3.5
      vertex 31.5 -131.18 -3.03062
      vertex 21.5 -131.18 -3.03062
    endloop
  endfacet
  facet normal 0 -1 -0
    outer loop
      vertex 31.5 -131.18 -3.03062
      vertex 0 -131.18 -3.5
      vertex 74.5 -131.18 -3.03062
    endloop
  endfacet
  facet normal 0 -1 0
    outer loop
      vertex 103 -131.18 -3.5
      vertex 74.5 -131.18 -3.03062
      vertex 0 -131.18 -3.5
    endloop
  endfacet
  facet normal 0 -1 0
    outer loop
      vertex 0 -131.18 -3.5
      vertex 21.5 -131.18 -3.03062
      vertex 0 -131.18 1.60644e-014
    endloop
  endfacet
  facet normal 0 -1 0
    outer loop
      vertex 0 -131.18 1.60644e-014
      vertex 31.5 -131.18 -0.469382
      vertex 103 -131.18 1.60644e-014
    endloop
  endfacet
  facet normal 0 -1 0
    outer loop
      vertex 74.5 -131.18 -0.469382
      vertex 103 -131.18 1.60644e-014
      vertex 31.5 -131.18 -0.469382
    endloop
  endfacet
  facet normal 0 -1 0
    outer loop
      vertex 84.5 -131.18 -0.469382
      vertex 103 -131.18 1.60644e-014
      vertex 74.5 -131.18 -0.469382
    endloop
  endfacet
  facet normal 0 -1 0
    outer loop
      vertex 84.5 -131.18 -3.03062
      vertex 103 -131.18 1.60644e-014
      vertex 84.5 -131.18 -0.469382
    endloop
  endfacet
  facet normal 0 -1 0
    outer loop
      vertex 84.5 -131.18 -3.03062
      vertex 103 -131.18 -3.5
      vertex 103 -131.18 1.60644e-014
    endloop
  endfacet
  facet normal 0 -1 0
    outer loop
      vertex 74.5 -131.18 -3.03062
      vertex 103 -131.18 -3.5
      vertex 84.5 -131.18 -3.03062
    endloop
  endfacet
  facet normal -0.453991 0 0.891006
    outer loop
      vertex -0.131678 -70 -0.536475
      vertex 0 -80 -0.469382
      vertex 0 -70 -0.469382
    endloop
  endfacet
  facet normal -0.453991 0 0.891006
    outer loop
      vertex 0 -80 -0.469382
      vertex -0.131678 -70 -0.536475
      vertex -0.131678 -80 -0.536475
    endloop
  endfacet
  facet normal -0.987688 0 -0.156436
    outer loop
      vertex -0.676584 -80 -2.21352
      vertex -0.75 -70 -1.75
      vertex -0.676584 -70 -2.21352
    endloop
  endfacet
  facet normal -0.987688 -0 -0.156436
    outer loop
      vertex -0.75 -70 -1.75
      vertex -0.676584 -80 -2.21352
      vertex -0.75 -80 -1.75
    endloop
  endfacet
  facet normal 0 1 0
    outer loop
      vertex 0 -70 -0.469382
      vertex -0.463525 -70 -0.868322
      vertex -0.131678 -70 -0.536475
    endloop
  endfacet
  facet normal 0 1 0
    outer loop
      vertex 0 -70 -0.469382
      vertex -0.676584 -70 -1.28648
      vertex -0.463525 -70 -0.868322
    endloop
  endfacet
  facet normal 0 1 0
    outer loop
      vertex 0 -70 -0.469382
      vertex -0.75 -70 -1.75
      vertex -0.676584 -70 -1.28648
    endloop
  endfacet
  facet normal 0 1 0
    outer loop
      vertex 0 -70 -0.469382
      vertex -0.676584 -70 -2.21352
      vertex -0.75 -70 -1.75
    endloop
  endfacet
  facet normal 0 1 -0
    outer loop
      vertex 0 -70 -3.03062
      vertex -0.676584 -70 -2.21352
      vertex 0 -70 -0.469382
    endloop
  endfacet
  facet normal 0 1 0
    outer loop
      vertex -0.676584 -70 -2.21352
      vertex 0 -70 -3.03062
      vertex -0.463525 -70 -2.63168
    endloop
  endfacet
  facet normal 0 1 0
    outer loop
      vertex -0.463525 -70 -2.63168
      vertex 0 -70 -3.03062
      vertex -0.131678 -70 -2.96352
    endloop
  endfacet
  facet normal -0.707107 0 -0.707107
    outer loop
      vertex -0.131678 -80 -2.96352
      vertex -0.463525 -70 -2.63168
      vertex -0.131678 -70 -2.96352
    endloop
  endfacet
  facet normal -0.707107 -0 -0.707107
    outer loop
      vertex -0.463525 -70 -2.63168
      vertex -0.131678 -80 -2.96352
      vertex -0.463525 -80 -2.63168
    endloop
  endfacet
  facet normal -0.891007 0 -0.45399
    outer loop
      vertex -0.463525 -80 -2.63168
      vertex -0.676584 -70 -2.21352
      vertex -0.463525 -70 -2.63168
    endloop
  endfacet
  facet normal -0.891007 -0 -0.45399
    outer loop
      vertex -0.676584 -70 -2.21352
      vertex -0.463525 -80 -2.63168
      vertex -0.676584 -80 -2.21352
    endloop
  endfacet
  facet normal -0.707107 0 0.707107
    outer loop
      vertex -0.463525 -80 -0.868322
      vertex -0.131678 -70 -0.536475
      vertex -0.463525 -70 -0.868322
    endloop
  endfacet
  facet normal -0.707107 0 0.707107
    outer loop
      vertex -0.131678 -70 -0.536475
      vertex -0.463525 -80 -0.868322
      vertex -0.131678 -80 -0.536475
    endloop
  endfacet
  facet normal 0 -1 0
    outer loop
      vertex -0.463525 -80 -0.868322
      vertex 0 -80 -0.469382
      vertex -0.131678 -80 -0.536475
    endloop
  endfacet
  facet normal 0 -1 0
    outer loop
      vertex -0.676584 -80 -1.28648
      vertex 0 -80 -0.469382
      vertex -0.463525 -80 -0.868322
    endloop
  endfacet
  facet normal 0 -1 0
    outer loop
      vertex -0.75 -80 -1.75
      vertex 0 -80 -0.469382
      vertex -0.676584 -80 -1.28648
    endloop
  endfacet
  facet normal 0 -1 0
    outer loop
      vertex -0.676584 -80 -2.21352
      vertex 0 -80 -0.469382
      vertex -0.75 -80 -1.75
    endloop
  endfacet
  facet normal 0 -1 0
    outer loop
      vertex 0 -80 -3.03062
      vertex -0.676584 -80 -2.21352
      vertex -0.463525 -80 -2.63168
    endloop
  endfacet
  facet normal 0 -1 0
    outer loop
      vertex 0 -80 -3.03062
      vertex -0.463525 -80 -2.63168
      vertex -0.131678 -80 -2.96352
    endloop
  endfacet
  facet normal 0 -1 0
    outer loop
      vertex -0.676584 -80 -2.21352
      vertex 0 -80 -3.03062
      vertex 0 -80 -0.469382
    endloop
  endfacet
  facet normal -0.453991 0 -0.891006
    outer loop
      vertex -0.131678 -80 -2.96352
      vertex 0 -70 -3.03062
      vertex 0 -80 -3.03062
    endloop
  endfacet
  facet normal -0.453991 0 -0.891006
    outer loop
      vertex 0 -70 -3.03062
      vertex -0.131678 -80 -2.96352
      vertex -0.131678 -70 -2.96352
    endloop
  endfacet
  facet normal -0.987688 0 0.156436
    outer loop
      vertex -0.75 -80 -1.75
      vertex -0.676584 -70 -1.28648
      vertex -0.75 -70 -1.75
    endloop
  endfacet
  facet normal -0.987688 0 0.156436
    outer loop
      vertex -0.676584 -70 -1.28648
      vertex -0.75 -80 -1.75
      vertex -0.676584 -80 -1.28648
    endloop
  endfacet
  facet normal -0.891007 0 0.45399
    outer loop
      vertex -0.676584 -80 -1.28648
      vertex -0.463525 -70 -0.868322
      vertex -0.676584 -70 -1.28648
    endloop
  endfacet
  facet normal -0.891007 0 0.45399
    outer loop
      vertex -0.463525 -70 -0.868322
      vertex -0.676584 -80 -1.28648
      vertex -0.463525 -80 -0.868322
    endloop
  endfacet
  facet normal -0.453991 0 0.891006
    outer loop
      vertex -0.131678 -102.68 -0.536475
      vertex 0 -112.68 -0.469382
      vertex 0 -102.68 -0.469382
    endloop
  endfacet
  facet normal -0.453991 0 0.891006
    outer loop
      vertex 0 -112.68 -0.469382
      vertex -0.131678 -102.68 -0.536475
      vertex -0.131678 -112.68 -0.536475
    endloop
  endfacet
  facet normal -0.987688 0 -0.156436
    outer loop
      vertex -0.676584 -112.68 -2.21352
      vertex -0.75 -102.68 -1.75
      vertex -0.676584 -102.68 -2.21352
    endloop
  endfacet
  facet normal -0.987688 -0 -0.156436
    outer loop
      vertex -0.75 -102.68 -1.75
      vertex -0.676584 -112.68 -2.21352
      vertex -0.75 -112.68 -1.75
    endloop
  endfacet
  facet normal 0 1 0
    outer loop
      vertex 0 -102.68 -0.469382
      vertex -0.463525 -102.68 -0.868322
      vertex -0.131678 -102.68 -0.536475
    endloop
  endfacet
  facet normal 0 1 0
    outer loop
      vertex 0 -102.68 -0.469382
      vertex -0.676584 -102.68 -1.28648
      vertex -0.463525 -102.68 -0.868322
    endloop
  endfacet
  facet normal 0 1 0
    outer loop
      vertex 0 -102.68 -0.469382
      vertex -0.75 -102.68 -1.75
      vertex -0.676584 -102.68 -1.28648
    endloop
  endfacet
  facet normal 0 1 0
    outer loop
      vertex 0 -102.68 -0.469382
      vertex -0.676584 -102.68 -2.21352
      vertex -0.75 -102.68 -1.75
    endloop
  endfacet
  facet normal 0 1 -0
    outer loop
      vertex 0 -102.68 -3.03062
      vertex -0.676584 -102.68 -2.21352
      vertex 0 -102.68 -0.469382
    endloop
  endfacet
  facet normal 0 1 0
    outer loop
      vertex -0.676584 -102.68 -2.21352
      vertex 0 -102.68 -3.03062
      vertex -0.463525 -102.68 -2.63168
    endloop
  endfacet
  facet normal 0 1 0
    outer loop
      vertex -0.463525 -102.68 -2.63168
      vertex 0 -102.68 -3.03062
      vertex -0.131678 -102.68 -2.96352
    endloop
  endfacet
  facet normal -0.707107 0 -0.707107
    outer loop
      vertex -0.131678 -112.68 -2.96352
      vertex -0.463525 -102.68 -2.63168
      vertex -0.131678 -102.68 -2.96352
    endloop
  endfacet
  facet normal -0.707107 -0 -0.707107
    outer loop
      vertex -0.463525 -102.68 -2.63168
      vertex -0.131678 -112.68 -2.96352
      vertex -0.463525 -112.68 -2.63168
    endloop
  endfacet
  facet normal -0.891007 0 -0.45399
    outer loop
      vertex -0.463525 -112.68 -2.63168
      vertex -0.676584 -102.68 -2.21352
      vertex -0.463525 -102.68 -2.63168
    endloop
  endfacet
  facet normal -0.891007 -0 -0.45399
    outer loop
      vertex -0.676584 -102.68 -2.21352
      vertex -0.463525 -112.68 -2.63168
      vertex -0.676584 -112.68 -2.21352
    endloop
  endfacet
  facet normal -0.707107 0 0.707107
    outer loop
      vertex -0.463525 -112.68 -0.868322
      vertex -0.131678 -102.68 -0.536475
      vertex -0.463525 -102.68 -0.868322
    endloop
  endfacet
  facet normal -0.707107 0 0.707107
    outer loop
      vertex -0.131678 -102.68 -0.536475
      vertex -0.463525 -112.68 -0.868322
      vertex -0.131678 -112.68 -0.536475
    endloop
  endfacet
  facet normal 0 -1 0
    outer loop
      vertex -0.463525 -112.68 -0.868322
      vertex 0 -112.68 -0.469382
      vertex -0.131678 -112.68 -0.536475
    endloop
  endfacet
  facet normal 0 -1 0
    outer loop
      vertex -0.676584 -112.68 -1.28648
      vertex 0 -112.68 -0.469382
      vertex -0.463525 -112.68 -0.868322
    endloop
  endfacet
  facet normal 0 -1 0
    outer loop
      vertex -0.75 -112.68 -1.75
      vertex 0 -112.68 -0.469382
      vertex -0.676584 -112.68 -1.28648
    endloop
  endfacet
  facet normal 0 -1 0
    outer loop
      vertex -0.676584 -112.68 -2.21352
      vertex 0 -112.68 -0.469382
      vertex -0.75 -112.68 -1.75
    endloop
  endfacet
  facet normal 0 -1 0
    outer loop
      vertex 0 -112.68 -3.03062
      vertex -0.676584 -112.68 -2.21352
      vertex -0.463525 -112.68 -2.63168
    endloop
  endfacet
  facet normal 0 -1 0
    outer loop
      vertex 0 -112.68 -3.03062
      vertex -0.463525 -112.68 -2.63168
      vertex -0.131678 -112.68 -2.96352
    endloop
  endfacet
  facet normal 0 -1 0
    outer loop
      vertex -0.676584 -112.68 -2.21352
      vertex 0 -112.68 -3.03062
      vertex 0 -112.68 -0.469382
    endloop
  endfacet
  facet normal -0.453991 0 -0.891006
    outer loop
      vertex -0.131678 -112.68 -2.96352
      vertex 0 -102.68 -3.03062
      vertex 0 -112.68 -3.03062
    endloop
  endfacet
  facet normal -0.453991 0 -0.891006
    outer loop
      vertex 0 -102.68 -3.03062
      vertex -0.131678 -112.68 -2.96352
      vertex -0.131678 -102.68 -2.96352
    endloop
  endfacet
  facet normal -0.987688 0 0.156436
    outer loop
      vertex -0.75 -112.68 -1.75
      vertex -0.676584 -102.68 -1.28648
      vertex -0.75 -102.68 -1.75
    endloop
  endfacet
  facet normal -0.987688 0 0.156436
    outer loop
      vertex -0.676584 -102.68 -1.28648
      vertex -0.75 -112.68 -1.75
      vertex -0.676584 -112.68 -1.28648
    endloop
  endfacet
  facet normal -0.891007 0 0.45399
    outer loop
      vertex -0.676584 -112.68 -1.28648
      vertex -0.463525 -102.68 -0.868322
      vertex -0.676584 -102.68 -1.28648
    endloop
  endfacet
  facet normal -0.891007 0 0.45399
    outer loop
      vertex -0.463525 -102.68 -0.868322
      vertex -0.676584 -112.68 -1.28648
      vertex -0.463525 -112.68 -0.868322
    endloop
  endfacet
  facet normal 0.453996 0 0.891004
    outer loop
      vertex 103 -70 -0.469382
      vertex 103.132 -80 -0.536475
      vertex 103.132 -70 -0.536475
    endloop
  endfacet
  facet normal 0.453996 0 0.891004
    outer loop
      vertex 103.132 -80 -0.536475
      vertex 103 -70 -0.469382
      vertex 103 -80 -0.469382
    endloop
  endfacet
  facet normal 0.987688 0 -0.15644
    outer loop
      vertex 103.75 -80 -1.75
      vertex 103.677 -70 -2.21352
      vertex 103.75 -70 -1.75
    endloop
  endfacet
  facet normal 0.987688 0 -0.15644
    outer loop
      vertex 103.677 -70 -2.21352
      vertex 103.75 -80 -1.75
      vertex 103.677 -80 -2.21352
    endloop
  endfacet
  facet normal 0 -1 0
    outer loop
      vertex 103 -80 -0.469382
      vertex 103.464 -80 -0.868322
      vertex 103.132 -80 -0.536475
    endloop
  endfacet
  facet normal 0 -1 0
    outer loop
      vertex 103 -80 -0.469382
      vertex 103.677 -80 -1.28648
      vertex 103.464 -80 -0.868322
    endloop
  endfacet
  facet normal 0 -1 0
    outer loop
      vertex 103 -80 -0.469382
      vertex 103.75 -80 -1.75
      vertex 103.677 -80 -1.28648
    endloop
  endfacet
  facet normal 0 -1 0
    outer loop
      vertex 103 -80 -0.469382
      vertex 103.677 -80 -2.21352
      vertex 103.75 -80 -1.75
    endloop
  endfacet
  facet normal 0 -1 0
    outer loop
      vertex 103 -80 -3.03062
      vertex 103.677 -80 -2.21352
      vertex 103 -80 -0.469382
    endloop
  endfacet
  facet normal 0 -1 0
    outer loop
      vertex 103.677 -80 -2.21352
      vertex 103 -80 -3.03062
      vertex 103.464 -80 -2.63168
    endloop
  endfacet
  facet normal 0 -1 0
    outer loop
      vertex 103.464 -80 -2.63168
      vertex 103 -80 -3.03062
      vertex 103.132 -80 -2.96352
    endloop
  endfacet
  facet normal 0.707106 0 -0.707108
    outer loop
      vertex 103.132 -80 -2.96352
      vertex 103.464 -70 -2.63168
      vertex 103.464 -80 -2.63168
    endloop
  endfacet
  facet normal 0.707106 0 -0.707108
    outer loop
      vertex 103.464 -70 -2.63168
      vertex 103.132 -80 -2.96352
      vertex 103.132 -70 -2.96352
    endloop
  endfacet
  facet normal 0.891007 0 -0.453989
    outer loop
      vertex 103.677 -80 -2.21352
      vertex 103.464 -70 -2.63168
      vertex 103.677 -70 -2.21352
    endloop
  endfacet
  facet normal 0.891007 0 -0.453989
    outer loop
      vertex 103.464 -70 -2.63168
      vertex 103.677 -80 -2.21352
      vertex 103.464 -80 -2.63168
    endloop
  endfacet
  facet normal 0.707106 0 0.707108
    outer loop
      vertex 103.132 -70 -0.536475
      vertex 103.464 -80 -0.868322
      vertex 103.464 -70 -0.868322
    endloop
  endfacet
  facet normal 0.707106 0 0.707108
    outer loop
      vertex 103.464 -80 -0.868322
      vertex 103.132 -70 -0.536475
      vertex 103.132 -80 -0.536475
    endloop
  endfacet
  facet normal 0 1 0
    outer loop
      vertex 103.464 -70 -0.868322
      vertex 103 -70 -0.469382
      vertex 103.132 -70 -0.536475
    endloop
  endfacet
  facet normal 0 1 0
    outer loop
      vertex 103.677 -70 -1.28648
      vertex 103 -70 -0.469382
      vertex 103.464 -70 -0.868322
    endloop
  endfacet
  facet normal 0 1 0
    outer loop
      vertex 103.75 -70 -1.75
      vertex 103 -70 -0.469382
      vertex 103.677 -70 -1.28648
    endloop
  endfacet
  facet normal 0 1 -0
    outer loop
      vertex 103.677 -70 -2.21352
      vertex 103 -70 -0.469382
      vertex 103.75 -70 -1.75
    endloop
  endfacet
  facet normal 0 1 0
    outer loop
      vertex 103 -70 -3.03062
      vertex 103.677 -70 -2.21352
      vertex 103.464 -70 -2.63168
    endloop
  endfacet
  facet normal 0 1 0
    outer loop
      vertex 103 -70 -3.03062
      vertex 103.464 -70 -2.63168
      vertex 103.132 -70 -2.96352
    endloop
  endfacet
  facet normal 0 1 0
    outer loop
      vertex 103.677 -70 -2.21352
      vertex 103 -70 -3.03062
      vertex 103 -70 -0.469382
    endloop
  endfacet
  facet normal 0.453996 0 -0.891004
    outer loop
      vertex 103 -80 -3.03062
      vertex 103.132 -70 -2.96352
      vertex 103.132 -80 -2.96352
    endloop
  endfacet
  facet normal 0.453996 0 -0.891004
    outer loop
      vertex 103.132 -70 -2.96352
      vertex 103 -80 -3.03062
      vertex 103 -70 -3.03062
    endloop
  endfacet
  facet normal 0.987688 -0 0.15644
    outer loop
      vertex 103.677 -80 -1.28648
      vertex 103.75 -70 -1.75
      vertex 103.677 -70 -1.28648
    endloop
  endfacet
  facet normal 0.987688 0 0.15644
    outer loop
      vertex 103.75 -70 -1.75
      vertex 103.677 -80 -1.28648
      vertex 103.75 -80 -1.75
    endloop
  endfacet
  facet normal 0.891007 -0 0.453989
    outer loop
      vertex 103.464 -80 -0.868322
      vertex 103.677 -70 -1.28648
      vertex 103.464 -70 -0.868322
    endloop
  endfacet
  facet normal 0.891007 0 0.453989
    outer loop
      vertex 103.677 -70 -1.28648
      vertex 103.464 -80 -0.868322
      vertex 103.677 -80 -1.28648
    endloop
  endfacet
  facet normal 0.453996 0 0.891004
    outer loop
      vertex 103 -102.68 -0.469382
      vertex 103.132 -112.68 -0.536475
      vertex 103.132 -102.68 -0.536475
    endloop
  endfacet
  facet normal 0.453996 0 0.891004
    outer loop
      vertex 103.132 -112.68 -0.536475
      vertex 103 -102.68 -0.469382
      vertex 103 -112.68 -0.469382
    endloop
  endfacet
  facet normal 0.987688 0 -0.15644
    outer loop
      vertex 103.75 -112.68 -1.75
      vertex 103.677 -102.68 -2.21352
      vertex 103.75 -102.68 -1.75
    endloop
  endfacet
  facet normal 0.987688 0 -0.15644
    outer loop
      vertex 103.677 -102.68 -2.21352
      vertex 103.75 -112.68 -1.75
      vertex 103.677 -112.68 -2.21352
    endloop
  endfacet
  facet normal 0 -1 0
    outer loop
      vertex 103 -112.68 -0.469382
      vertex 103.464 -112.68 -0.868322
      vertex 103.132 -112.68 -0.536475
    endloop
  endfacet
  facet normal 0 -1 0
    outer loop
      vertex 103 -112.68 -0.469382
      vertex 103.677 -112.68 -1.28648
      vertex 103.464 -112.68 -0.868322
    endloop
  endfacet
  facet normal 0 -1 0
    outer loop
      vertex 103 -112.68 -0.469382
      vertex 103.75 -112.68 -1.75
      vertex 103.677 -112.68 -1.28648
    endloop
  endfacet
  facet normal 0 -1 0
    outer loop
      vertex 103 -112.68 -0.469382
      vertex 103.677 -112.68 -2.21352
      vertex 103.75 -112.68 -1.75
    endloop
  endfacet
  facet normal 0 -1 0
    outer loop
      vertex 103 -112.68 -3.03062
      vertex 103.677 -112.68 -2.21352
      vertex 103 -112.68 -0.469382
    endloop
  endfacet
  facet normal 0 -1 0
    outer loop
      vertex 103.677 -112.68 -2.21352
      vertex 103 -112.68 -3.03062
      vertex 103.464 -112.68 -2.63168
    endloop
  endfacet
  facet normal 0 -1 0
    outer loop
      vertex 103.464 -112.68 -2.63168
      vertex 103 -112.68 -3.03062
      vertex 103.132 -112.68 -2.96352
    endloop
  endfacet
  facet normal 0.707106 0 -0.707108
    outer loop
      vertex 103.132 -112.68 -2.96352
      vertex 103.464 -102.68 -2.63168
      vertex 103.464 -112.68 -2.63168
    endloop
  endfacet
  facet normal 0.707106 0 -0.707108
    outer loop
      vertex 103.464 -102.68 -2.63168
      vertex 103.132 -112.68 -2.96352
      vertex 103.132 -102.68 -2.96352
    endloop
  endfacet
  facet normal 0.891007 0 -0.453989
    outer loop
      vertex 103.677 -112.68 -2.21352
      vertex 103.464 -102.68 -2.63168
      vertex 103.677 -102.68 -2.21352
    endloop
  endfacet
  facet normal 0.891007 0 -0.453989
    outer loop
      vertex 103.464 -102.68 -2.63168
      vertex 103.677 -112.68 -2.21352
      vertex 103.464 -112.68 -2.63168
    endloop
  endfacet
  facet normal 0.707106 0 0.707108
    outer loop
      vertex 103.132 -102.68 -0.536475
      vertex 103.464 -112.68 -0.868322
      vertex 103.464 -102.68 -0.868322
    endloop
  endfacet
  facet normal 0.707106 0 0.707108
    outer loop
      vertex 103.464 -112.68 -0.868322
      vertex 103.132 -102.68 -0.536475
      vertex 103.132 -112.68 -0.536475
    endloop
  endfacet
  facet normal 0 1 0
    outer loop
      vertex 103.464 -102.68 -0.868322
      vertex 103 -102.68 -0.469382
      vertex 103.132 -102.68 -0.536475
    endloop
  endfacet
  facet normal 0 1 0
    outer loop
      vertex 103.677 -102.68 -1.28648
      vertex 103 -102.68 -0.469382
      vertex 103.464 -102.68 -0.868322
    endloop
  endfacet
  facet normal 0 1 0
    outer loop
      vertex 103.75 -102.68 -1.75
      vertex 103 -102.68 -0.469382
      vertex 103.677 -102.68 -1.28648
    endloop
  endfacet
  facet normal 0 1 -0
    outer loop
      vertex 103.677 -102.68 -2.21352
      vertex 103 -102.68 -0.469382
      vertex 103.75 -102.68 -1.75
    endloop
  endfacet
  facet normal 0 1 0
    outer loop
      vertex 103 -102.68 -3.03062
      vertex 103.677 -102.68 -2.21352
      vertex 103.464 -102.68 -2.63168
    endloop
  endfacet
  facet normal 0 1 0
    outer loop
      vertex 103 -102.68 -3.03062
      vertex 103.464 -102.68 -2.63168
      vertex 103.132 -102.68 -2.96352
    endloop
  endfacet
  facet normal 0 1 0
    outer loop
      vertex 103.677 -102.68 -2.21352
      vertex 103 -102.68 -3.03062
      vertex 103 -102.68 -0.469382
    endloop
  endfacet
  facet normal 0.453996 0 -0.891004
    outer loop
      vertex 103 -112.68 -3.03062
      vertex 103.132 -102.68 -2.96352
      vertex 103.132 -112.68 -2.96352
    endloop
  endfacet
  facet normal 0.453996 0 -0.891004
    outer loop
      vertex 103.132 -102.68 -2.96352
      vertex 103 -112.68 -3.03062
      vertex 103 -102.68 -3.03062
    endloop
  endfacet
  facet normal 0.987688 -0 0.15644
    outer loop
      vertex 103.677 -112.68 -1.28648
      vertex 103.75 -102.68 -1.75
      vertex 103.677 -102.68 -1.28648
    endloop
  endfacet
  facet normal 0.987688 0 0.15644
    outer loop
      vertex 103.75 -102.68 -1.75
      vertex 103.677 -112.68 -1.28648
      vertex 103.75 -112.68 -1.75
    endloop
  endfacet
  facet normal 0.891007 -0 0.453989
    outer loop
      vertex 103.464 -112.68 -0.868322
      vertex 103.677 -102.68 -1.28648
      vertex 103.464 -102.68 -0.868322
    endloop
  endfacet
  facet normal 0.891007 0 0.453989
    outer loop
      vertex 103.677 -102.68 -1.28648
      vertex 103.464 -112.68 -0.868322
      vertex 103.677 -112.68 -1.28648
    endloop
  endfacet
  facet normal 0.453996 0 0.891004
    outer loop
      vertex 103 -20 -0.469382
      vertex 103.132 -30 -0.536475
      vertex 103.132 -20 -0.536475
    endloop
  endfacet
  facet normal 0.453996 0 0.891004
    outer loop
      vertex 103.132 -30 -0.536475
      vertex 103 -20 -0.469382
      vertex 103 -30 -0.469382
    endloop
  endfacet
  facet normal 0.987688 0 -0.15644
    outer loop
      vertex 103.75 -30 -1.75
      vertex 103.677 -20 -2.21352
      vertex 103.75 -20 -1.75
    endloop
  endfacet
  facet normal 0.987688 0 -0.15644
    outer loop
      vertex 103.677 -20 -2.21352
      vertex 103.75 -30 -1.75
      vertex 103.677 -30 -2.21352
    endloop
  endfacet
  facet normal 0 -1 0
    outer loop
      vertex 103 -30 -0.469382
      vertex 103.464 -30 -0.868322
      vertex 103.132 -30 -0.536475
    endloop
  endfacet
  facet normal 0 -1 0
    outer loop
      vertex 103 -30 -0.469382
      vertex 103.677 -30 -1.28648
      vertex 103.464 -30 -0.868322
    endloop
  endfacet
  facet normal 0 -1 0
    outer loop
      vertex 103 -30 -0.469382
      vertex 103.75 -30 -1.75
      vertex 103.677 -30 -1.28648
    endloop
  endfacet
  facet normal 0 -1 0
    outer loop
      vertex 103 -30 -0.469382
      vertex 103.677 -30 -2.21352
      vertex 103.75 -30 -1.75
    endloop
  endfacet
  facet normal 0 -1 0
    outer loop
      vertex 103 -30 -3.03062
      vertex 103.677 -30 -2.21352
      vertex 103 -30 -0.469382
    endloop
  endfacet
  facet normal 0 -1 0
    outer loop
      vertex 103.677 -30 -2.21352
      vertex 103 -30 -3.03062
      vertex 103.464 -30 -2.63168
    endloop
  endfacet
  facet normal 0 -1 0
    outer loop
      vertex 103.464 -30 -2.63168
      vertex 103 -30 -3.03062
      vertex 103.132 -30 -2.96352
    endloop
  endfacet
  facet normal 0.707106 0 -0.707108
    outer loop
      vertex 103.132 -30 -2.96352
      vertex 103.464 -20 -2.63168
      vertex 103.464 -30 -2.63168
    endloop
  endfacet
  facet normal 0.707106 0 -0.707108
    outer loop
      vertex 103.464 -20 -2.63168
      vertex 103.132 -30 -2.96352
      vertex 103.132 -20 -2.96352
    endloop
  endfacet
  facet normal 0.891007 0 -0.453989
    outer loop
      vertex 103.677 -30 -2.21352
      vertex 103.464 -20 -2.63168
      vertex 103.677 -20 -2.21352
    endloop
  endfacet
  facet normal 0.891007 0 -0.453989
    outer loop
      vertex 103.464 -20 -2.63168
      vertex 103.677 -30 -2.21352
      vertex 103.464 -30 -2.63168
    endloop
  endfacet
  facet normal 0.707106 0 0.707108
    outer loop
      vertex 103.132 -20 -0.536475
      vertex 103.464 -30 -0.868322
      vertex 103.464 -20 -0.868322
    endloop
  endfacet
  facet normal 0.707106 0 0.707108
    outer loop
      vertex 103.464 -30 -0.868322
      vertex 103.132 -20 -0.536475
      vertex 103.132 -30 -0.536475
    endloop
  endfacet
  facet normal 0 1 0
    outer loop
      vertex 103.464 -20 -0.868322
      vertex 103 -20 -0.469382
      vertex 103.132 -20 -0.536475
    endloop
  endfacet
  facet normal 0 1 0
    outer loop
      vertex 103.677 -20 -1.28648
      vertex 103 -20 -0.469382
      vertex 103.464 -20 -0.868322
    endloop
  endfacet
  facet normal 0 1 0
    outer loop
      vertex 103.75 -20 -1.75
      vertex 103 -20 -0.469382
      vertex 103.677 -20 -1.28648
    endloop
  endfacet
  facet normal 0 1 -0
    outer loop
      vertex 103.677 -20 -2.21352
      vertex 103 -20 -0.469382
      vertex 103.75 -20 -1.75
    endloop
  endfacet
  facet normal 0 1 0
    outer loop
      vertex 103 -20 -3.03062
      vertex 103.677 -20 -2.21352
      vertex 103.464 -20 -2.63168
    endloop
  endfacet
  facet normal 0 1 0
    outer loop
      vertex 103 -20 -3.03062
      vertex 103.464 -20 -2.63168
      vertex 103.132 -20 -2.96352
    endloop
  endfacet
  facet normal 0 1 0
    outer loop
      vertex 103.677 -20 -2.21352
      vertex 103 -20 -3.03062
      vertex 103 -20 -0.469382
    endloop
  endfacet
  facet normal 0.453996 0 -0.891004
    outer loop
      vertex 103 -30 -3.03062
      vertex 103.132 -20 -2.96352
      vertex 103.132 -30 -2.96352
    endloop
  endfacet
  facet normal 0.453996 0 -0.891004
    outer loop
      vertex 103.132 -20 -2.96352
      vertex 103 -30 -3.03062
      vertex 103 -20 -3.03062
    endloop
  endfacet
  facet normal 0.987688 -0 0.15644
    outer loop
      vertex 103.677 -30 -1.28648
      vertex 103.75 -20 -1.75
      vertex 103.677 -20 -1.28648
    endloop
  endfacet
  facet normal 0.987688 0 0.15644
    outer loop
      vertex 103.75 -20 -1.75
      vertex 103.677 -30 -1.28648
      vertex 103.75 -30 -1.75
    endloop
  endfacet
  facet normal 0.891007 -0 0.453989
    outer loop
      vertex 103.464 -30 -0.868322
      vertex 103.677 -20 -1.28648
      vertex 103.464 -20 -0.868322
    endloop
  endfacet
  facet normal 0.891007 0 0.453989
    outer loop
      vertex 103.677 -20 -1.28648
      vertex 103.464 -30 -0.868322
      vertex 103.677 -30 -1.28648
    endloop
  endfacet
  facet normal 0 -0.453977 0.891013
    outer loop
      vertex 21.5 -131.18 -0.469382
      vertex 31.5 -131.312 -0.536475
      vertex 31.5 -131.18 -0.469382
    endloop
  endfacet
  facet normal 0 -0.453977 0.891013
    outer loop
      vertex 31.5 -131.312 -0.536475
      vertex 21.5 -131.18 -0.469382
      vertex 21.5 -131.312 -0.536475
    endloop
  endfacet
  facet normal 0 -0.98769 -0.156424
    outer loop
      vertex 21.5 -131.857 -2.21352
      vertex 31.5 -131.93 -1.75
      vertex 21.5 -131.93 -1.75
    endloop
  endfacet
  facet normal 0 -0.98769 -0.156424
    outer loop
      vertex 31.5 -131.93 -1.75
      vertex 21.5 -131.857 -2.21352
      vertex 31.5 -131.857 -2.21352
    endloop
  endfacet
  facet normal -1 0 0
    outer loop
      vertex 21.5 -131.644 -2.63168
      vertex 21.5 -131.18 -3.03062
      vertex 21.5 -131.312 -2.96352
    endloop
  endfacet
  facet normal -1 0 0
    outer loop
      vertex 21.5 -131.857 -2.21352
      vertex 21.5 -131.18 -3.03062
      vertex 21.5 -131.644 -2.63168
    endloop
  endfacet
  facet normal -1 0 0
    outer loop
      vertex 21.5 -131.18 -3.03062
      vertex 21.5 -131.857 -2.21352
      vertex 21.5 -131.18 -0.469382
    endloop
  endfacet
  facet normal -1 0 0
    outer loop
      vertex 21.5 -131.18 -0.469382
      vertex 21.5 -131.644 -0.868322
      vertex 21.5 -131.312 -0.536475
    endloop
  endfacet
  facet normal -1 0 0
    outer loop
      vertex 21.5 -131.857 -1.28648
      vertex 21.5 -131.18 -0.469382
      vertex 21.5 -131.857 -2.21352
    endloop
  endfacet
  facet normal -1 0 0
    outer loop
      vertex 21.5 -131.18 -0.469382
      vertex 21.5 -131.857 -1.28648
      vertex 21.5 -131.644 -0.868322
    endloop
  endfacet
  facet normal -1 0 -0
    outer loop
      vertex 21.5 -131.857 -1.28648
      vertex 21.5 -131.857 -2.21352
      vertex 21.5 -131.93 -1.75
    endloop
  endfacet
  facet normal 0 -0.707106 -0.707108
    outer loop
      vertex 21.5 -131.644 -2.63168
      vertex 31.5 -131.312 -2.96352
      vertex 31.5 -131.644 -2.63168
    endloop
  endfacet
  facet normal -0 -0.707106 -0.707108
    outer loop
      vertex 31.5 -131.312 -2.96352
      vertex 21.5 -131.644 -2.63168
      vertex 21.5 -131.312 -2.96352
    endloop
  endfacet
  facet normal 0 -0.891007 -0.453989
    outer loop
      vertex 21.5 -131.644 -2.63168
      vertex 31.5 -131.857 -2.21352
      vertex 21.5 -131.857 -2.21352
    endloop
  endfacet
  facet normal 0 -0.891007 -0.453989
    outer loop
      vertex 31.5 -131.857 -2.21352
      vertex 21.5 -131.644 -2.63168
      vertex 31.5 -131.644 -2.63168
    endloop
  endfacet
  facet normal 0 -0.707106 0.707108
    outer loop
      vertex 21.5 -131.312 -0.536475
      vertex 31.5 -131.644 -0.868322
      vertex 31.5 -131.312 -0.536475
    endloop
  endfacet
  facet normal 0 -0.707106 0.707108
    outer loop
      vertex 31.5 -131.644 -0.868322
      vertex 21.5 -131.312 -0.536475
      vertex 21.5 -131.644 -0.868322
    endloop
  endfacet
  facet normal 1 0 0
    outer loop
      vertex 31.5 -131.644 -0.868322
      vertex 31.5 -131.18 -0.469382
      vertex 31.5 -131.312 -0.536475
    endloop
  endfacet
  facet normal 1 0 0
    outer loop
      vertex 31.5 -131.857 -1.28648
      vertex 31.5 -131.18 -0.469382
      vertex 31.5 -131.644 -0.868322
    endloop
  endfacet
  facet normal 1 0 0
    outer loop
      vertex 31.5 -131.18 -0.469382
      vertex 31.5 -131.857 -1.28648
      vertex 31.5 -131.18 -3.03062
    endloop
  endfacet
  facet normal 1 0 0
    outer loop
      vertex 31.5 -131.18 -3.03062
      vertex 31.5 -131.644 -2.63168
      vertex 31.5 -131.312 -2.96352
    endloop
  endfacet
  facet normal 1 -0 0
    outer loop
      vertex 31.5 -131.857 -2.21352
      vertex 31.5 -131.18 -3.03062
      vertex 31.5 -131.857 -1.28648
    endloop
  endfacet
  facet normal 1 0 0
    outer loop
      vertex 31.5 -131.18 -3.03062
      vertex 31.5 -131.857 -2.21352
      vertex 31.5 -131.644 -2.63168
    endloop
  endfacet
  facet normal 1 0 -0
    outer loop
      vertex 31.5 -131.857 -2.21352
      vertex 31.5 -131.857 -1.28648
      vertex 31.5 -131.93 -1.75
    endloop
  endfacet
  facet normal 0 -0.453978 -0.891013
    outer loop
      vertex 21.5 -131.312 -2.96352
      vertex 31.5 -131.18 -3.03062
      vertex 31.5 -131.312 -2.96352
    endloop
  endfacet
  facet normal -0 -0.453978 -0.891013
    outer loop
      vertex 31.5 -131.18 -3.03062
      vertex 21.5 -131.312 -2.96352
      vertex 21.5 -131.18 -3.03062
    endloop
  endfacet
  facet normal 0 -0.98769 0.156424
    outer loop
      vertex 21.5 -131.93 -1.75
      vertex 31.5 -131.857 -1.28648
      vertex 21.5 -131.857 -1.28648
    endloop
  endfacet
  facet normal 0 -0.98769 0.156424
    outer loop
      vertex 31.5 -131.857 -1.28648
      vertex 21.5 -131.93 -1.75
      vertex 31.5 -131.93 -1.75
    endloop
  endfacet
  facet normal 0 -0.891007 0.453989
    outer loop
      vertex 21.5 -131.857 -1.28648
      vertex 31.5 -131.644 -0.868322
      vertex 21.5 -131.644 -0.868322
    endloop
  endfacet
  facet normal 0 -0.891007 0.453989
    outer loop
      vertex 31.5 -131.644 -0.868322
      vertex 21.5 -131.857 -1.28648
      vertex 31.5 -131.857 -1.28648
    endloop
  endfacet
  facet normal 0 -0.453977 0.891013
    outer loop
      vertex 74.5 -131.18 -0.469382
      vertex 84.5 -131.312 -0.536475
      vertex 84.5 -131.18 -0.469382
    endloop
  endfacet
  facet normal 0 -0.453977 0.891013
    outer loop
      vertex 84.5 -131.312 -0.536475
      vertex 74.5 -131.18 -0.469382
      vertex 74.5 -131.312 -0.536475
    endloop
  endfacet
  facet normal 0 -0.98769 -0.156424
    outer loop
      vertex 74.5 -131.857 -2.21352
      vertex 84.5 -131.93 -1.75
      vertex 74.5 -131.93 -1.75
    endloop
  endfacet
  facet normal 0 -0.98769 -0.156424
    outer loop
      vertex 84.5 -131.93 -1.75
      vertex 74.5 -131.857 -2.21352
      vertex 84.5 -131.857 -2.21352
    endloop
  endfacet
  facet normal -1 0 0
    outer loop
      vertex 74.5 -131.644 -2.63168
      vertex 74.5 -131.18 -3.03062
      vertex 74.5 -131.312 -2.96352
    endloop
  endfacet
  facet normal -1 0 0
    outer loop
      vertex 74.5 -131.857 -2.21352
      vertex 74.5 -131.18 -3.03062
      vertex 74.5 -131.644 -2.63168
    endloop
  endfacet
  facet normal -1 0 0
    outer loop
      vertex 74.5 -131.18 -3.03062
      vertex 74.5 -131.857 -2.21352
      vertex 74.5 -131.18 -0.469382
    endloop
  endfacet
  facet normal -1 0 0
    outer loop
      vertex 74.5 -131.18 -0.469382
      vertex 74.5 -131.644 -0.868322
      vertex 74.5 -131.312 -0.536475
    endloop
  endfacet
  facet normal -1 0 0
    outer loop
      vertex 74.5 -131.857 -1.28648
      vertex 74.5 -131.18 -0.469382
      vertex 74.5 -131.857 -2.21352
    endloop
  endfacet
  facet normal -1 0 0
    outer loop
      vertex 74.5 -131.18 -0.469382
      vertex 74.5 -131.857 -1.28648
      vertex 74.5 -131.644 -0.868322
    endloop
  endfacet
  facet normal -1 0 -0
    outer loop
      vertex 74.5 -131.857 -1.28648
      vertex 74.5 -131.857 -2.21352
      vertex 74.5 -131.93 -1.75
    endloop
  endfacet
  facet normal 0 -0.707106 -0.707108
    outer loop
      vertex 74.5 -131.644 -2.63168
      vertex 84.5 -131.312 -2.96352
      vertex 84.5 -131.644 -2.63168
    endloop
  endfacet
  facet normal -0 -0.707106 -0.707108
    outer loop
      vertex 84.5 -131.312 -2.96352
      vertex 74.5 -131.644 -2.63168
      vertex 74.5 -131.312 -2.96352
    endloop
  endfacet
  facet normal 0 -0.891007 -0.453989
    outer loop
      vertex 74.5 -131.644 -2.63168
      vertex 84.5 -131.857 -2.21352
      vertex 74.5 -131.857 -2.21352
    endloop
  endfacet
  facet normal 0 -0.891007 -0.453989
    outer loop
      vertex 84.5 -131.857 -2.21352
      vertex 74.5 -131.644 -2.63168
      vertex 84.5 -131.644 -2.63168
    endloop
  endfacet
  facet normal 0 -0.707106 0.707108
    outer loop
      vertex 74.5 -131.312 -0.536475
      vertex 84.5 -131.644 -0.868322
      vertex 84.5 -131.312 -0.536475
    endloop
  endfacet
  facet normal 0 -0.707106 0.707108
    outer loop
      vertex 84.5 -131.644 -0.868322
      vertex 74.5 -131.312 -0.536475
      vertex 74.5 -131.644 -0.868322
    endloop
  endfacet
  facet normal 1 0 0
    outer loop
      vertex 84.5 -131.644 -0.868322
      vertex 84.5 -131.18 -0.469382
      vertex 84.5 -131.312 -0.536475
    endloop
  endfacet
  facet normal 1 0 0
    outer loop
      vertex 84.5 -131.857 -1.28648
      vertex 84.5 -131.18 -0.469382
      vertex 84.5 -131.644 -0.868322
    endloop
  endfacet
  facet normal 1 0 0
    outer loop
      vertex 84.5 -131.18 -0.469382
      vertex 84.5 -131.857 -1.28648
      vertex 84.5 -131.18 -3.03062
    endloop
  endfacet
  facet normal 1 0 0
    outer loop
      vertex 84.5 -131.18 -3.03062
      vertex 84.5 -131.644 -2.63168
      vertex 84.5 -131.312 -2.96352
    endloop
  endfacet
  facet normal 1 -0 0
    outer loop
      vertex 84.5 -131.857 -2.21352
      vertex 84.5 -131.18 -3.03062
      vertex 84.5 -131.857 -1.28648
    endloop
  endfacet
  facet normal 1 0 0
    outer loop
      vertex 84.5 -131.18 -3.03062
      vertex 84.5 -131.857 -2.21352
      vertex 84.5 -131.644 -2.63168
    endloop
  endfacet
  facet normal 1 0 -0
    outer loop
      vertex 84.5 -131.857 -2.21352
      vertex 84.5 -131.857 -1.28648
      vertex 84.5 -131.93 -1.75
    endloop
  endfacet
  facet normal 0 -0.453978 -0.891013
    outer loop
      vertex 74.5 -131.312 -2.96352
      vertex 84.5 -131.18 -3.03062
      vertex 84.5 -131.312 -2.96352
    endloop
  endfacet
  facet normal -0 -0.453978 -0.891013
    outer loop
      vertex 84.5 -131.18 -3.03062
      vertex 74.5 -131.312 -2.96352
      vertex 74.5 -131.18 -3.03062
    endloop
  endfacet
  facet normal 0 -0.98769 0.156424
    outer loop
      vertex 74.5 -131.93 -1.75
      vertex 84.5 -131.857 -1.28648
      vertex 74.5 -131.857 -1.28648
    endloop
  endfacet
  facet normal 0 -0.98769 0.156424
    outer loop
      vertex 84.5 -131.857 -1.28648
      vertex 74.5 -131.93 -1.75
      vertex 84.5 -131.93 -1.75
    endloop
  endfacet
  facet normal 0 -0.891007 0.453989
    outer loop
      vertex 74.5 -131.857 -1.28648
      vertex 84.5 -131.644 -0.868322
      vertex 74.5 -131.644 -0.868322
    endloop
  endfacet
  facet normal 0 -0.891007 0.453989
    outer loop
      vertex 84.5 -131.644 -0.868322
      vertex 74.5 -131.857 -1.28648
      vertex 84.5 -131.857 -1.28648
    endloop
  endfacet
  facet normal -0 0.453991 0.891006
    outer loop
      vertex 21.5 0.131678 -0.536475
      vertex 31.5 -5.74808e-017 -0.469382
      vertex 31.5 0.131678 -0.536475
    endloop
  endfacet
  facet normal 0 0.453991 0.891006
    outer loop
      vertex 31.5 -5.74808e-017 -0.469382
      vertex 21.5 0.131678 -0.536475
      vertex 21.5 -5.74808e-017 -0.469382
    endloop
  endfacet
  facet normal 0 0.987688 -0.156436
    outer loop
      vertex 31.5 0.676584 -2.21352
      vertex 21.5 0.75 -1.75
      vertex 31.5 0.75 -1.75
    endloop
  endfacet
  facet normal 0 0.987688 -0.156436
    outer loop
      vertex 21.5 0.75 -1.75
      vertex 31.5 0.676584 -2.21352
      vertex 21.5 0.676584 -2.21352
    endloop
  endfacet
  facet normal 1 0 0
    outer loop
      vertex 31.5 0.676584 -1.28648
      vertex 31.5 0.676584 -2.21352
      vertex 31.5 0.75 -1.75
    endloop
  endfacet
  facet normal 1 0 0
    outer loop
      vertex 31.5 -5.74808e-017 -0.469382
      vertex 31.5 0.676584 -1.28648
      vertex 31.5 0.463525 -0.868322
    endloop
  endfacet
  facet normal 1 0 0
    outer loop
      vertex 31.5 0.676584 -1.28648
      vertex 31.5 -5.74808e-017 -0.469382
      vertex 31.5 0.676584 -2.21352
    endloop
  endfacet
  facet normal 1 0 0
    outer loop
      vertex 31.5 -5.74808e-017 -0.469382
      vertex 31.5 0.463525 -0.868322
      vertex 31.5 0.131678 -0.536475
    endloop
  endfacet
  facet normal 1 0 0
    outer loop
      vertex 31.5 -3.71131e-016 -3.03062
      vertex 31.5 0.676584 -2.21352
      vertex 31.5 -5.74808e-017 -0.469382
    endloop
  endfacet
  facet normal 1 0 0
    outer loop
      vertex 31.5 0.676584 -2.21352
      vertex 31.5 -3.71131e-016 -3.03062
      vertex 31.5 0.463525 -2.63168
    endloop
  endfacet
  facet normal 1 0 0
    outer loop
      vertex 31.5 0.463525 -2.63168
      vertex 31.5 -3.71131e-016 -3.03062
      vertex 31.5 0.131678 -2.96352
    endloop
  endfacet
  facet normal 0 0.707107 -0.707107
    outer loop
      vertex 31.5 0.131678 -2.96352
      vertex 21.5 0.463525 -2.63168
      vertex 31.5 0.463525 -2.63168
    endloop
  endfacet
  facet normal 0 0.707107 -0.707107
    outer loop
      vertex 21.5 0.463525 -2.63168
      vertex 31.5 0.131678 -2.96352
      vertex 21.5 0.131678 -2.96352
    endloop
  endfacet
  facet normal 0 0.891007 -0.45399
    outer loop
      vertex 31.5 0.463525 -2.63168
      vertex 21.5 0.676584 -2.21352
      vertex 31.5 0.676584 -2.21352
    endloop
  endfacet
  facet normal 0 0.891007 -0.45399
    outer loop
      vertex 21.5 0.676584 -2.21352
      vertex 31.5 0.463525 -2.63168
      vertex 21.5 0.463525 -2.63168
    endloop
  endfacet
  facet normal 0 0.707107 0.707107
    outer loop
      vertex 31.5 0.463525 -0.868322
      vertex 21.5 0.131678 -0.536475
      vertex 31.5 0.131678 -0.536475
    endloop
  endfacet
  facet normal 0 0.707107 0.707107
    outer loop
      vertex 21.5 0.131678 -0.536475
      vertex 31.5 0.463525 -0.868322
      vertex 21.5 0.463525 -0.868322
    endloop
  endfacet
  facet normal -1 0 0
    outer loop
      vertex 21.5 0.676584 -2.21352
      vertex 21.5 0.676584 -1.28648
      vertex 21.5 0.75 -1.75
    endloop
  endfacet
  facet normal -1 0 0
    outer loop
      vertex 21.5 -3.71131e-016 -3.03062
      vertex 21.5 0.676584 -2.21352
      vertex 21.5 0.463525 -2.63168
    endloop
  endfacet
  facet normal -1 -0 0
    outer loop
      vertex 21.5 0.676584 -2.21352
      vertex 21.5 -3.71131e-016 -3.03062
      vertex 21.5 0.676584 -1.28648
    endloop
  endfacet
  facet normal -1 0 0
    outer loop
      vertex 21.5 -3.71131e-016 -3.03062
      vertex 21.5 0.463525 -2.63168
      vertex 21.5 0.131678 -2.96352
    endloop
  endfacet
  facet normal -1 0 -0
    outer loop
      vertex 21.5 -5.74808e-017 -0.469382
      vertex 21.5 0.676584 -1.28648
      vertex 21.5 -3.71131e-016 -3.03062
    endloop
  endfacet
  facet normal -1 0 0
    outer loop
      vertex 21.5 0.463525 -0.868322
      vertex 21.5 -5.74808e-017 -0.469382
      vertex 21.5 0.131678 -0.536475
    endloop
  endfacet
  facet normal -1 0 0
    outer loop
      vertex 21.5 0.676584 -1.28648
      vertex 21.5 -5.74808e-017 -0.469382
      vertex 21.5 0.463525 -0.868322
    endloop
  endfacet
  facet normal 0 0.453991 -0.891006
    outer loop
      vertex 21.5 -3.71131e-016 -3.03062
      vertex 31.5 0.131678 -2.96352
      vertex 31.5 -3.71131e-016 -3.03062
    endloop
  endfacet
  facet normal 0 0.453991 -0.891006
    outer loop
      vertex 31.5 0.131678 -2.96352
      vertex 21.5 -3.71131e-016 -3.03062
      vertex 21.5 0.131678 -2.96352
    endloop
  endfacet
  facet normal 0 0.987688 0.156436
    outer loop
      vertex 31.5 0.75 -1.75
      vertex 21.5 0.676584 -1.28648
      vertex 31.5 0.676584 -1.28648
    endloop
  endfacet
  facet normal 0 0.987688 0.156436
    outer loop
      vertex 21.5 0.676584 -1.28648
      vertex 31.5 0.75 -1.75
      vertex 21.5 0.75 -1.75
    endloop
  endfacet
  facet normal 0 0.891007 0.45399
    outer loop
      vertex 31.5 0.676584 -1.28648
      vertex 21.5 0.463525 -0.868322
      vertex 31.5 0.463525 -0.868322
    endloop
  endfacet
  facet normal 0 0.891007 0.45399
    outer loop
      vertex 21.5 0.463525 -0.868322
      vertex 31.5 0.676584 -1.28648
      vertex 21.5 0.676584 -1.28648
    endloop
  endfacet
  facet normal -0 0.453991 0.891006
    outer loop
      vertex 74.5 0.131678 -0.536475
      vertex 84.5 -5.74808e-017 -0.469382
      vertex 84.5 0.131678 -0.536475
    endloop
  endfacet
  facet normal 0 0.453991 0.891006
    outer loop
      vertex 84.5 -5.74808e-017 -0.469382
      vertex 74.5 0.131678 -0.536475
      vertex 74.5 -5.74808e-017 -0.469382
    endloop
  endfacet
  facet normal 0 0.987688 -0.156436
    outer loop
      vertex 84.5 0.676584 -2.21352
      vertex 74.5 0.75 -1.75
      vertex 84.5 0.75 -1.75
    endloop
  endfacet
  facet normal 0 0.987688 -0.156436
    outer loop
      vertex 74.5 0.75 -1.75
      vertex 84.5 0.676584 -2.21352
      vertex 74.5 0.676584 -2.21352
    endloop
  endfacet
  facet normal 1 0 0
    outer loop
      vertex 84.5 0.676584 -1.28648
      vertex 84.5 0.676584 -2.21352
      vertex 84.5 0.75 -1.75
    endloop
  endfacet
  facet normal 1 0 0
    outer loop
      vertex 84.5 -5.74808e-017 -0.469382
      vertex 84.5 0.676584 -1.28648
      vertex 84.5 0.463525 -0.868322
    endloop
  endfacet
  facet normal 1 0 0
    outer loop
      vertex 84.5 0.676584 -1.28648
      vertex 84.5 -5.74808e-017 -0.469382
      vertex 84.5 0.676584 -2.21352
    endloop
  endfacet
  facet normal 1 0 0
    outer loop
      vertex 84.5 -5.74808e-017 -0.469382
      vertex 84.5 0.463525 -0.868322
      vertex 84.5 0.131678 -0.536475
    endloop
  endfacet
  facet normal 1 0 0
    outer loop
      vertex 84.5 -3.71131e-016 -3.03062
      vertex 84.5 0.676584 -2.21352
      vertex 84.5 -5.74808e-017 -0.469382
    endloop
  endfacet
  facet normal 1 0 0
    outer loop
      vertex 84.5 0.676584 -2.21352
      vertex 84.5 -3.71131e-016 -3.03062
      vertex 84.5 0.463525 -2.63168
    endloop
  endfacet
  facet normal 1 0 0
    outer loop
      vertex 84.5 0.463525 -2.63168
      vertex 84.5 -3.71131e-016 -3.03062
      vertex 84.5 0.131678 -2.96352
    endloop
  endfacet
  facet normal 0 0.707107 -0.707107
    outer loop
      vertex 84.5 0.131678 -2.96352
      vertex 74.5 0.463525 -2.63168
      vertex 84.5 0.463525 -2.63168
    endloop
  endfacet
  facet normal 0 0.707107 -0.707107
    outer loop
      vertex 74.5 0.463525 -2.63168
      vertex 84.5 0.131678 -2.96352
      vertex 74.5 0.131678 -2.96352
    endloop
  endfacet
  facet normal 0 0.891007 -0.45399
    outer loop
      vertex 84.5 0.463525 -2.63168
      vertex 74.5 0.676584 -2.21352
      vertex 84.5 0.676584 -2.21352
    endloop
  endfacet
  facet normal 0 0.891007 -0.45399
    outer loop
      vertex 74.5 0.676584 -2.21352
      vertex 84.5 0.463525 -2.63168
      vertex 74.5 0.463525 -2.63168
    endloop
  endfacet
  facet normal 0 0.707107 0.707107
    outer loop
      vertex 84.5 0.463525 -0.868322
      vertex 74.5 0.131678 -0.536475
      vertex 84.5 0.131678 -0.536475
    endloop
  endfacet
  facet normal 0 0.707107 0.707107
    outer loop
      vertex 74.5 0.131678 -0.536475
      vertex 84.5 0.463525 -0.868322
      vertex 74.5 0.463525 -0.868322
    endloop
  endfacet
  facet normal -1 0 0
    outer loop
      vertex 74.5 0.676584 -2.21352
      vertex 74.5 0.676584 -1.28648
      vertex 74.5 0.75 -1.75
    endloop
  endfacet
  facet normal -1 0 0
    outer loop
      vertex 74.5 -3.71131e-016 -3.03062
      vertex 74.5 0.676584 -2.21352
      vertex 74.5 0.463525 -2.63168
    endloop
  endfacet
  facet normal -1 -0 0
    outer loop
      vertex 74.5 0.676584 -2.21352
      vertex 74.5 -3.71131e-016 -3.03062
      vertex 74.5 0.676584 -1.28648
    endloop
  endfacet
  facet normal -1 0 0
    outer loop
      vertex 74.5 -3.71131e-016 -3.03062
      vertex 74.5 0.463525 -2.63168
      vertex 74.5 0.131678 -2.96352
    endloop
  endfacet
  facet normal -1 0 -0
    outer loop
      vertex 74.5 -5.74808e-017 -0.469382
      vertex 74.5 0.676584 -1.28648
      vertex 74.5 -3.71131e-016 -3.03062
    endloop
  endfacet
  facet normal -1 0 0
    outer loop
      vertex 74.5 0.463525 -0.868322
      vertex 74.5 -5.74808e-017 -0.469382
      vertex 74.5 0.131678 -0.536475
    endloop
  endfacet
  facet normal -1 0 0
    outer loop
      vertex 74.5 0.676584 -1.28648
      vertex 74.5 -5.74808e-017 -0.469382
      vertex 74.5 0.463525 -0.868322
    endloop
  endfacet
  facet normal 0 0.453991 -0.891006
    outer loop
      vertex 74.5 -3.71131e-016 -3.03062
      vertex 84.5 0.131678 -2.96352
      vertex 84.5 -3.71131e-016 -3.03062
    endloop
  endfacet
  facet normal 0 0.453991 -0.891006
    outer loop
      vertex 84.5 0.131678 -2.96352
      vertex 74.5 -3.71131e-016 -3.03062
      vertex 74.5 0.131678 -2.96352
    endloop
  endfacet
  facet normal 0 0.987688 0.156436
    outer loop
      vertex 84.5 0.75 -1.75
      vertex 74.5 0.676584 -1.28648
      vertex 84.5 0.676584 -1.28648
    endloop
  endfacet
  facet normal 0 0.987688 0.156436
    outer loop
      vertex 74.5 0.676584 -1.28648
      vertex 84.5 0.75 -1.75
      vertex 74.5 0.75 -1.75
    endloop
  endfacet
  facet normal 0 0.891007 0.45399
    outer loop
      vertex 84.5 0.676584 -1.28648
      vertex 74.5 0.463525 -0.868322
      vertex 84.5 0.463525 -0.868322
    endloop
  endfacet
  facet normal 0 0.891007 0.45399
    outer loop
      vertex 74.5 0.463525 -0.868322
      vertex 84.5 0.676584 -1.28648
      vertex 74.5 0.676584 -1.28648
    endloop
  endfacet
endsolid OpenSCAD_Model
